<?xml version="1.0" encoding="utf-8"?>
<!-- Generator: Adobe Illustrator 16.0.0, SVG Export Plug-In . SVG Version: 6.00 Build 0)  -->
<!DOCTYPE svg PUBLIC "-//W3C//DTD SVG 1.1//EN" "http://www.w3.org/Graphics/SVG/1.1/DTD/svg11.dtd">
<svg version="1.1" id="Layer_1" xmlns="http://www.w3.org/2000/svg" xmlns:xlink="http://www.w3.org/1999/xlink" x="0px" y="0px"
	 width="400px" height="200px" viewBox="0 0 400 200" enable-background="new 0 0 400 200" xml:space="preserve">
<path fill="#010101" stroke="#010101" stroke-miterlimit="10" d="M125.842,63.349c0.203,0.408,0.244,0.774,0.122,1.1
	c-0.122,0.327-0.316,0.581-0.581,0.764c-0.266,0.184-0.591,0.275-0.978,0.275c-0.388,0-0.724-0.122-1.008-0.367
	c-0.327-0.244-0.51-0.581-0.55-1.008c-0.041-0.428-0.174-0.855-0.397-1.284c-0.225-0.428-0.652-0.804-1.284-1.13
	c-0.632-0.326-1.661-0.489-3.086-0.489c-0.816,0-1.519,0.357-2.109,1.07c-0.591,0.713-1.069,1.711-1.436,2.995
	c-0.367,1.284-0.632,2.812-0.795,4.584c-0.163,1.772-0.224,3.719-0.183,5.837c0,1.427,0.295,2.619,0.886,3.576
	c0.59,0.958,1.324,1.813,2.2,2.567c0.876,0.754,1.823,1.447,2.842,2.078c1.018,0.632,1.976,1.314,2.873,2.047
	c0.896,0.733,1.65,1.58,2.261,2.537c0.611,0.958,0.937,2.129,0.978,3.514c0.081,2.038-0.255,3.647-1.008,4.829
	c-0.754,1.182-1.793,1.997-3.117,2.445c-1.325,0.449-2.894,0.541-4.706,0.275c-1.814-0.265-3.739-0.865-5.776-1.803
	c-0.449-0.203-0.672-0.498-0.672-0.886c0-0.387,0.142-0.753,0.428-1.1c0.285-0.346,0.672-0.59,1.161-0.733
	c0.489-0.142,0.998-0.07,1.528,0.214c0.57,0.286,1.375,0.591,2.414,0.917c1.039,0.327,2.057,0.489,3.056,0.489
	c0.998,0,1.884-0.223,2.659-0.672c0.773-0.448,1.161-1.303,1.161-2.567c0-1.262-0.296-2.332-0.886-3.208
	c-0.591-0.876-1.345-1.69-2.262-2.445c-0.917-0.753-1.916-1.487-2.995-2.2c-1.08-0.713-2.068-1.528-2.964-2.445
	c-0.896-0.917-1.65-1.996-2.261-3.24c-0.611-1.242-0.897-2.74-0.856-4.492c0.04-1.956,0.132-3.942,0.275-5.959
	c0.142-2.017,0.468-3.84,0.978-5.47c0.509-1.629,1.263-2.974,2.262-4.034c0.998-1.059,2.353-1.629,4.064-1.711
	c1.67-0.081,3.004,0.122,4.003,0.611c0.998,0.489,1.772,1.049,2.322,1.681c0.55,0.632,0.917,1.233,1.1,1.803
	C125.689,62.881,125.801,63.227,125.842,63.349z"/>
<path fill="#010101" stroke="#010101" stroke-miterlimit="10" d="M131.898,60.11c-0.041-0.367,0.02-0.651,0.184-0.855
	c0.162-0.204,0.376-0.356,0.642-0.458c0.265-0.101,0.55-0.173,0.855-0.214c0.306-0.04,0.621-0.101,0.948-0.184
	c0.203-0.04,0.723-0.07,1.559-0.091c0.834-0.021,1.823,0.082,2.964,0.305c1.141,0.225,2.354,0.622,3.637,1.192
	c1.284,0.571,2.445,1.396,3.484,2.476c1.039,1.08,1.884,2.486,2.537,4.217c0.651,1.732,0.937,3.881,0.855,6.448
	c-0.122,3.219-0.571,5.837-1.345,7.854c-0.774,2.017-1.732,3.586-2.873,4.706c-1.141,1.121-2.405,1.905-3.789,2.353
	c-1.386,0.449-2.75,0.734-4.095,0.856c-0.693,0.082-1.244,0.153-1.65,0.214c-0.408,0.061-0.713,0.214-0.917,0.458
	c-0.123,0.122-0.205,0.642-0.245,1.559c-0.041,0.917-0.082,1.925-0.122,3.025c-0.041,1.1-0.083,2.139-0.123,3.117
	c-0.041,0.978-0.122,1.589-0.244,1.833c-0.205,0.53-0.571,0.846-1.1,0.947c-0.53,0.102-0.897-0.071-1.101-0.52
	c-0.122-0.245-0.214-0.753-0.275-1.528c-0.061-0.774-0.102-1.935-0.122-3.484c-0.021-1.548-0.011-3.524,0.03-5.929
	c0.041-2.404,0.102-5.357,0.184-8.862c0.04-2.2,0.081-4.37,0.122-6.509c0.04-2.139,0.061-4.104,0.061-5.898c0-1.792,0-3.32,0-4.584
	C131.959,61.292,131.938,60.477,131.898,60.11z M134.404,63.043c0,0.123,0.01,0.724,0.031,1.803c0.02,1.08,0.04,2.405,0.061,3.973
	c0.02,1.569,0.04,3.25,0.061,5.042c0.02,1.793,0.051,3.464,0.092,5.012c0.04,1.549,0.071,2.853,0.092,3.912
	c0.02,1.06,0.03,1.63,0.03,1.711c0,0.122,0.01,0.286,0.031,0.489c0.02,0.205,0.061,0.388,0.122,0.55
	c0.061,0.163,0.173,0.306,0.336,0.428c0.162,0.122,0.407,0.164,0.733,0.122c0.203,0,0.621-0.04,1.253-0.122
	c0.631-0.081,1.345-0.245,2.139-0.489c0.794-0.245,1.64-0.631,2.537-1.162c0.896-0.529,1.711-1.253,2.444-2.169
	c0.734-0.917,1.354-2.078,1.864-3.484c0.509-1.406,0.764-3.106,0.764-5.104c0-1.996-0.225-3.677-0.672-5.042
	c-0.449-1.364-1.049-2.465-1.803-3.3c-0.754-0.834-1.569-1.467-2.445-1.895c-0.876-0.428-1.732-0.733-2.567-0.917
	c-0.835-0.183-1.589-0.275-2.261-0.275s-1.131,0-1.375,0c-0.815,0-1.263,0.072-1.344,0.214
	C134.444,62.484,134.404,62.718,134.404,63.043z"/>
<path fill="#010101" stroke="#010101" stroke-miterlimit="10" d="M155.494,59.682c0.082-0.122,0.265-0.234,0.55-0.336
	c0.285-0.101,0.59-0.152,0.917-0.152c0.325,0,0.651,0.041,0.978,0.122c0.326,0.082,0.59,0.204,0.795,0.367
	c0.162,0.204,0.264,0.5,0.305,0.886c0.041,0.388,0.051,0.855,0.031,1.406c-0.021,0.55-0.072,1.152-0.153,1.803
	c-0.082,0.652-0.143,1.344-0.183,2.078c-0.042,0.489-0.083,1.63-0.123,3.423c-0.041,1.793-0.092,3.912-0.153,6.356
	s-0.122,5.042-0.183,7.792c-0.061,2.75-0.123,5.287-0.184,7.609c-0.061,2.323-0.133,4.279-0.214,5.868
	c-0.082,1.589-0.143,2.466-0.183,2.628c-0.205,0.449-0.571,0.743-1.1,0.886c-0.53,0.143-0.897-0.152-1.101-0.886
	c-0.082-0.367-0.132-0.825-0.153-1.375c-0.021-0.55-0.021-1.12,0-1.711c0.021-0.59,0.051-1.14,0.092-1.65
	c0.04-0.509,0.061-0.927,0.061-1.253c0-0.163,0-0.764,0-1.803s-0.01-2.353-0.03-3.942c-0.021-1.589-0.041-3.381-0.061-5.378
	c-0.021-1.996-0.041-4.023-0.062-6.082c-0.021-2.057-0.03-4.064-0.03-6.02c0-1.956,0.009-3.718,0.03-5.287
	c0.021-1.568,0.041-2.832,0.062-3.79C155.423,60.284,155.453,59.764,155.494,59.682z"/>
<path fill="#010101" stroke="#010101" stroke-miterlimit="10" d="M167.317,59.682c0.163-0.163,0.417-0.356,0.764-0.581
	c0.346-0.224,0.712-0.397,1.1-0.52c0.387-0.123,0.753-0.143,1.1-0.061c0.346,0.082,0.642,0.327,0.886,0.733
	c0.122,0.204,0.376,0.855,0.764,1.956c0.387,1.1,0.875,2.486,1.467,4.156c0.59,1.671,1.232,3.535,1.925,5.592
	c0.692,2.058,1.406,4.136,2.139,6.234c0.733,2.099,1.446,4.146,2.139,6.143c0.692,1.997,1.324,3.769,1.895,5.317
	c0.57,1.549,1.049,2.792,1.437,3.728c0.387,0.938,0.621,1.386,0.703,1.345c0.082-0.04,0.143-0.56,0.184-1.559
	c0.04-0.998,0.051-2.301,0.03-3.912c-0.021-1.609-0.051-3.453-0.091-5.531c-0.041-2.078-0.092-4.196-0.153-6.356
	c-0.061-2.159-0.113-4.278-0.153-6.356c-0.041-2.078-0.082-3.942-0.123-5.592c-0.041-1.65-0.061-2.984-0.061-4.003
	c0-1.018,0.02-1.568,0.061-1.65c0.163-0.284,0.448-0.54,0.856-0.764c0.407-0.224,0.937-0.071,1.589,0.458
	c0.163,0.123,0.295,0.785,0.397,1.987c0.101,1.202,0.184,2.75,0.245,4.645c0.061,1.895,0.101,4.024,0.122,6.387
	c0.02,2.364,0.031,4.778,0.031,7.243c0,2.466-0.031,4.88-0.092,7.243c-0.061,2.364-0.122,4.492-0.184,6.387
	c-0.061,1.895-0.133,3.443-0.214,4.645c-0.082,1.202-0.163,1.864-0.244,1.986c-0.367,0.571-0.755,0.886-1.162,0.947
	c-0.408,0.061-0.938-0.132-1.589-0.581c-0.164-0.122-0.469-0.712-0.917-1.772c-0.449-1.059-0.978-2.404-1.589-4.034
	c-0.611-1.629-1.294-3.474-2.048-5.532c-0.754-2.057-1.508-4.156-2.261-6.295c-0.754-2.139-1.498-4.207-2.231-6.204
	c-0.733-1.996-1.396-3.779-1.986-5.348c-0.591-1.568-1.08-2.812-1.467-3.728c-0.388-0.917-0.622-1.334-0.703-1.253
	c-0.123,0.083-0.184,0.917-0.184,2.506c0,1.589,0.04,3.555,0.122,5.898c0.082,2.343,0.184,4.88,0.306,7.609
	c0.123,2.73,0.234,5.308,0.336,7.731c0.101,2.425,0.173,4.483,0.214,6.173c0.04,1.691,0.04,2.68,0,2.964
	c-0.205,0.816-0.571,1.203-1.1,1.162c-0.53-0.041-0.978-0.285-1.345-0.733c-0.082-0.123-0.174-0.754-0.275-1.895
	c-0.103-1.14-0.194-2.618-0.275-4.431c-0.082-1.813-0.163-3.86-0.244-6.143c-0.083-2.281-0.153-4.614-0.214-6.998
	c-0.062-2.384-0.103-4.716-0.123-6.998c-0.021-2.282-0.03-4.318-0.03-6.112c0-1.793,0.02-3.26,0.061-4.401
	C167.174,60.375,167.235,59.764,167.317,59.682z"/>
<path fill="#010101" stroke="#010101" stroke-miterlimit="10" d="M194.176,59.132c0.326-0.284,1.14-0.478,2.445-0.581
	c1.304-0.101,2.709-0.132,4.217-0.092c1.507,0.042,2.882,0.123,4.125,0.245c1.242,0.123,1.966,0.245,2.17,0.367
	c0.123,0.082,0.244,0.214,0.367,0.397c0.122,0.183,0.214,0.388,0.275,0.611c0.061,0.224,0.061,0.438,0,0.642
	c-0.062,0.204-0.235,0.347-0.52,0.428c-0.286,0.082-0.877,0.143-1.773,0.184c-0.896,0.041-1.854,0.082-2.872,0.122
	c-1.019,0.041-1.986,0.113-2.903,0.214c-0.917,0.102-1.539,0.235-1.864,0.397c-0.204,0.122-0.388,0.744-0.55,1.864
	c-0.164,1.122-0.306,2.486-0.428,4.095c-0.123,1.61-0.205,3.341-0.245,5.195c-0.041,1.854-0.061,3.586-0.061,5.195
	c0,1.61,0.04,2.964,0.122,4.064c0.081,1.1,0.204,1.691,0.367,1.772c0.245,0.123,0.876,0.144,1.895,0.061
	c1.018-0.081,2.117-0.183,3.301-0.305c1.181-0.123,2.271-0.193,3.27-0.214c0.998-0.021,1.578,0.112,1.742,0.397
	c0.325,0.489,0.428,1.03,0.305,1.62c-0.122,0.591-0.407,0.988-0.855,1.192c-0.244,0.082-0.846,0.102-1.803,0.061
	c-0.958-0.04-1.977-0.07-3.057-0.092c-1.08-0.02-2.078,0.011-2.994,0.092c-0.917,0.082-1.437,0.266-1.559,0.55
	c-0.123,0.327-0.214,0.876-0.275,1.65c-0.061,0.775-0.071,1.58-0.03,2.415c0.04,0.835,0.132,1.6,0.275,2.292
	c0.143,0.693,0.336,1.1,0.581,1.222c0.245,0.123,0.937,0.214,2.078,0.275c1.14,0.062,2.362,0.123,3.667,0.184
	c1.304,0.061,2.506,0.143,3.606,0.245c1.101,0.102,1.772,0.235,2.017,0.397c0.244,0.205,0.428,0.458,0.551,0.764
	c0.121,0.306,0.192,0.611,0.213,0.917c0.021,0.305-0.021,0.591-0.121,0.855c-0.104,0.266-0.256,0.438-0.459,0.52
	c-0.164,0.041-0.592,0.092-1.283,0.153c-0.693,0.061-1.528,0.113-2.506,0.153c-0.979,0.041-2.027,0.071-3.148,0.092
	c-1.121,0.021-2.18,0.021-3.178,0c-0.999-0.021-1.864-0.062-2.598-0.123s-1.202-0.153-1.406-0.275
	c-0.163-0.081-0.316-0.712-0.458-1.895c-0.143-1.182-0.275-2.699-0.397-4.554c-0.123-1.854-0.245-3.952-0.367-6.295
	c-0.123-2.342-0.214-4.736-0.275-7.181s-0.112-4.849-0.153-7.212c-0.041-2.362-0.041-4.492,0-6.387
	c0.041-1.895,0.102-3.443,0.184-4.645C193.89,59.978,194.012,59.295,194.176,59.132z"/>
<path fill="#010101" stroke="#010101" stroke-miterlimit="10" d="M216.979,60.416c0.081-0.122,0.265-0.285,0.551-0.489
	c0.283-0.204,0.6-0.346,0.947-0.428c0.346-0.081,0.672-0.061,0.977,0.062c0.307,0.122,0.499,0.408,0.582,0.855
	c0.039,0.245,0.039,0.917,0,2.017c-0.042,1.1-0.092,2.486-0.153,4.156c-0.062,1.671-0.153,3.536-0.275,5.593
	c-0.122,2.058-0.235,4.146-0.336,6.265c-0.103,2.119-0.204,4.197-0.306,6.234c-0.102,2.038-0.174,3.871-0.214,5.5
	c-0.041,1.63-0.041,2.964,0,4.003c0.04,1.039,0.122,1.62,0.245,1.742c0.162,0.205,0.539,0.306,1.13,0.306s1.284-0.03,2.078-0.092
	c0.794-0.061,1.63-0.142,2.506-0.244c0.876-0.102,1.69-0.184,2.444-0.245s1.376-0.061,1.865,0c0.488,0.061,0.753,0.214,0.794,0.458
	c0.081,0.733,0.122,1.314,0.122,1.742s-0.225,0.642-0.672,0.642c-0.164,0-0.571,0.041-1.223,0.122
	c-0.652,0.082-1.436,0.183-2.354,0.306c-0.916,0.122-1.895,0.244-2.934,0.367c-1.039,0.122-2.017,0.214-2.934,0.275
	c-0.916,0.061-1.691,0.092-2.322,0.092c-0.633,0-0.988-0.081-1.07-0.245c-0.082-0.122-0.132-0.764-0.152-1.925
	c-0.021-1.161-0.03-2.648-0.03-4.461c0-1.813,0.009-3.871,0.03-6.173c0.021-2.301,0.051-4.655,0.092-7.059
	c0.04-2.404,0.081-4.747,0.123-7.029c0.039-2.282,0.091-4.329,0.152-6.143c0.061-1.813,0.122-3.279,0.184-4.4
	C216.887,61.098,216.938,60.498,216.979,60.416z"/>
<path fill="#010101" stroke="#010101" stroke-miterlimit="10" d="M234.603,59.132c0.325-0.284,1.14-0.478,2.444-0.581
	c1.305-0.101,2.709-0.132,4.218-0.092c1.507,0.042,2.882,0.123,4.126,0.245c1.242,0.123,1.965,0.245,2.17,0.367
	c0.121,0.082,0.244,0.214,0.366,0.397c0.122,0.183,0.214,0.388,0.274,0.611c0.062,0.224,0.062,0.438,0,0.642
	c-0.061,0.204-0.234,0.347-0.52,0.428c-0.285,0.082-0.877,0.143-1.771,0.184c-0.897,0.041-1.855,0.082-2.873,0.122
	c-1.02,0.041-1.986,0.113-2.903,0.214c-0.917,0.102-1.538,0.235-1.864,0.397c-0.204,0.122-0.388,0.744-0.55,1.864
	c-0.163,1.122-0.306,2.486-0.428,4.095c-0.122,1.61-0.204,3.341-0.245,5.195c-0.041,1.854-0.061,3.586-0.061,5.195
	c0,1.61,0.04,2.964,0.122,4.064c0.081,1.1,0.204,1.691,0.366,1.772c0.245,0.123,0.877,0.144,1.895,0.061
	c1.019-0.081,2.119-0.183,3.301-0.305c1.182-0.123,2.271-0.193,3.27-0.214c0.998-0.021,1.579,0.112,1.742,0.397
	c0.326,0.489,0.428,1.03,0.307,1.62c-0.123,0.591-0.408,0.988-0.856,1.192c-0.244,0.082-0.847,0.102-1.803,0.061
	c-0.958-0.04-1.978-0.07-3.056-0.092c-1.08-0.02-2.078,0.011-2.995,0.092c-0.917,0.082-1.437,0.266-1.559,0.55
	c-0.122,0.327-0.214,0.876-0.275,1.65c-0.062,0.775-0.071,1.58-0.03,2.415c0.04,0.835,0.132,1.6,0.275,2.292
	c0.143,0.693,0.336,1.1,0.58,1.222c0.244,0.123,0.938,0.214,2.078,0.275c1.141,0.062,2.363,0.123,3.668,0.184
	c1.303,0.061,2.506,0.143,3.605,0.245c1.1,0.102,1.772,0.235,2.017,0.397c0.245,0.205,0.429,0.458,0.55,0.764
	c0.123,0.306,0.193,0.611,0.215,0.917c0.02,0.305-0.021,0.591-0.123,0.855c-0.102,0.266-0.255,0.438-0.458,0.52
	c-0.163,0.041-0.591,0.092-1.284,0.153s-1.527,0.113-2.506,0.153c-0.978,0.041-2.027,0.071-3.146,0.092
	c-1.121,0.021-2.181,0.021-3.179,0c-0.999-0.021-1.864-0.062-2.598-0.123s-1.202-0.153-1.405-0.275
	c-0.164-0.081-0.316-0.712-0.459-1.895c-0.143-1.182-0.275-2.699-0.396-4.554c-0.123-1.854-0.245-3.952-0.367-6.295
	c-0.123-2.342-0.215-4.736-0.275-7.181s-0.112-4.849-0.152-7.212c-0.041-2.362-0.041-4.492,0-6.387
	c0.04-1.895,0.102-3.443,0.184-4.645C234.316,59.978,234.439,59.295,234.603,59.132z"/>
<path fill="#010101" stroke="#010101" stroke-miterlimit="10" d="M269.462,63.349c0.204,0.408,0.245,0.774,0.122,1.1
	c-0.122,0.327-0.315,0.581-0.58,0.764c-0.266,0.184-0.591,0.275-0.978,0.275c-0.388,0-0.725-0.122-1.009-0.367
	c-0.327-0.244-0.51-0.581-0.55-1.008c-0.041-0.428-0.174-0.855-0.397-1.284c-0.225-0.428-0.652-0.804-1.284-1.13
	c-0.632-0.326-1.66-0.489-3.086-0.489c-0.815,0-1.519,0.357-2.108,1.07c-0.592,0.713-1.07,1.711-1.437,2.995
	c-0.367,1.284-0.633,2.812-0.795,4.584c-0.163,1.772-0.225,3.719-0.184,5.837c0,1.427,0.296,2.619,0.887,3.576
	c0.59,0.958,1.323,1.813,2.2,2.567c0.876,0.754,1.823,1.447,2.842,2.078c1.019,0.632,1.977,1.314,2.873,2.047
	c0.896,0.733,1.65,1.58,2.262,2.537c0.61,0.958,0.937,2.129,0.978,3.514c0.081,2.038-0.255,3.647-1.009,4.829
	c-0.754,1.182-1.793,1.997-3.117,2.445c-1.324,0.449-2.894,0.541-4.706,0.275c-1.813-0.265-3.738-0.865-5.775-1.803
	c-0.449-0.203-0.673-0.498-0.673-0.886c0-0.387,0.143-0.753,0.428-1.1c0.285-0.346,0.673-0.59,1.162-0.733
	c0.488-0.142,0.998-0.07,1.527,0.214c0.57,0.286,1.376,0.591,2.414,0.917c1.039,0.327,2.058,0.489,3.057,0.489
	c0.998,0,1.884-0.223,2.658-0.672c0.773-0.448,1.161-1.303,1.161-2.567c0-1.262-0.296-2.332-0.886-3.208
	c-0.591-0.876-1.345-1.69-2.262-2.445c-0.917-0.753-1.915-1.487-2.994-2.2c-1.081-0.713-2.069-1.528-2.965-2.445
	c-0.896-0.917-1.65-1.996-2.262-3.24c-0.611-1.242-0.896-2.74-0.855-4.492c0.04-1.956,0.132-3.942,0.275-5.959
	c0.143-2.017,0.468-3.84,0.978-5.47c0.509-1.629,1.263-2.974,2.262-4.034c0.998-1.059,2.353-1.629,4.064-1.711
	c1.67-0.081,3.004,0.122,4.003,0.611c0.998,0.489,1.772,1.049,2.323,1.681c0.55,0.632,0.916,1.233,1.1,1.803
	C269.31,62.881,269.421,63.227,269.462,63.349z"/>
<path fill="#010101" stroke="#010101" stroke-miterlimit="10" d="M289.187,63.349c0.204,0.408,0.245,0.774,0.122,1.1
	c-0.122,0.327-0.315,0.581-0.58,0.764c-0.266,0.184-0.591,0.275-0.978,0.275c-0.388,0-0.725-0.122-1.009-0.367
	c-0.327-0.244-0.51-0.581-0.55-1.008c-0.041-0.428-0.174-0.855-0.397-1.284c-0.225-0.428-0.652-0.804-1.284-1.13
	c-0.632-0.326-1.66-0.489-3.086-0.489c-0.815,0-1.519,0.357-2.108,1.07c-0.592,0.713-1.07,1.711-1.437,2.995
	c-0.367,1.284-0.633,2.812-0.795,4.584c-0.163,1.772-0.225,3.719-0.184,5.837c0,1.427,0.296,2.619,0.887,3.576
	c0.59,0.958,1.323,1.813,2.2,2.567c0.876,0.754,1.823,1.447,2.842,2.078c1.019,0.632,1.977,1.314,2.873,2.047
	c0.896,0.733,1.65,1.58,2.262,2.537c0.61,0.958,0.937,2.129,0.978,3.514c0.081,2.038-0.255,3.647-1.009,4.829
	c-0.754,1.182-1.793,1.997-3.117,2.445c-1.324,0.449-2.894,0.541-4.706,0.275c-1.813-0.265-3.738-0.865-5.775-1.803
	c-0.449-0.203-0.673-0.498-0.673-0.886c0-0.387,0.143-0.753,0.429-1.1c0.284-0.346,0.672-0.59,1.161-0.733
	c0.488-0.142,0.998-0.07,1.527,0.214c0.57,0.286,1.376,0.591,2.414,0.917c1.039,0.327,2.058,0.489,3.057,0.489
	c0.998,0,1.884-0.223,2.658-0.672c0.773-0.448,1.161-1.303,1.161-2.567c0-1.262-0.296-2.332-0.886-3.208
	c-0.591-0.876-1.345-1.69-2.262-2.445c-0.917-0.753-1.915-1.487-2.994-2.2c-1.081-0.713-2.069-1.528-2.965-2.445
	c-0.896-0.917-1.65-1.996-2.262-3.24c-0.61-1.242-0.896-2.74-0.855-4.492c0.04-1.956,0.132-3.942,0.275-5.959
	c0.143-2.017,0.468-3.84,0.978-5.47c0.509-1.629,1.263-2.974,2.262-4.034c0.998-1.059,2.353-1.629,4.064-1.711
	c1.67-0.081,3.004,0.122,4.003,0.611c0.998,0.489,1.772,1.049,2.323,1.681c0.55,0.632,0.916,1.233,1.1,1.803
	C289.034,62.881,289.146,63.227,289.187,63.349z"/>
<path fill="#010101" stroke="#010101" stroke-miterlimit="10" d="M119.778,117.302c0.171,0,0.349,0.017,0.534,0.052
	c0.185,0.035,0.355,0.111,0.513,0.228c0.156,0.117,0.292,0.292,0.406,0.524c0.113,0.232,0.171,0.559,0.171,0.979
	c0,0.209,0.071,0.641,0.213,1.293s0.327,1.438,0.556,2.358c0.228,0.921,0.491,1.939,0.791,3.058c0.299,1.119,0.604,2.248,0.918,3.39
	c0.313,1.142,0.626,2.255,0.94,3.337c0.313,1.084,0.591,2.051,0.833,2.9c0.242,0.852,0.434,1.551,0.577,2.098
	c0.142,0.547,0.228,0.855,0.256,0.926c0.028,0.14,0.064,0.285,0.107,0.437c0.042,0.151,0.049,0.304,0.021,0.454
	c-0.029,0.152-0.085,0.297-0.171,0.438c-0.085,0.14-0.243,0.244-0.47,0.314c-0.228,0.07-0.442,0.076-0.641,0.018
	c-0.2-0.059-0.385-0.158-0.556-0.297c-0.171-0.141-0.32-0.303-0.448-0.49c-0.128-0.186-0.221-0.372-0.278-0.559
	c-0.029-0.07-0.072-0.25-0.128-0.541c-0.057-0.291-0.128-0.652-0.213-1.084c-0.085-0.431-0.186-0.926-0.299-1.485
	c-0.114-0.56-0.228-1.13-0.342-1.712c0-0.023-0.128-0.035-0.384-0.035s-0.584,0.006-0.983,0.018s-0.854,0.041-1.367,0.088
	s-1.025,0.081-1.538,0.104c-1.083,0.07-2.058,0.141-2.926,0.211c-0.869,0.069-1.318,0.162-1.346,0.279
	c-0.342,1.118-0.598,1.939-0.769,2.463c-0.171,0.524-0.271,0.811-0.299,0.856c-0.085,0.21-0.207,0.495-0.363,0.856
	c-0.157,0.361-0.349,0.705-0.577,1.031c-0.229,0.326-0.491,0.594-0.791,0.803c-0.299,0.21-0.62,0.279-0.961,0.21
	c-0.228-0.046-0.37-0.181-0.427-0.401c-0.057-0.222-0.05-0.507,0.021-0.856s0.185-0.733,0.342-1.153
	c0.156-0.42,0.349-0.85,0.577-1.293c0.114-0.209,0.37-0.791,0.769-1.747c0.399-0.955,0.869-2.085,1.41-3.39
	c0.541-1.305,1.111-2.691,1.709-4.158c0.598-1.468,1.16-2.836,1.688-4.106c0.527-1.27,0.961-2.347,1.303-3.232
	c0.342-0.885,0.541-1.386,0.598-1.503c0.142-0.372,0.271-0.744,0.384-1.117S119.464,117.302,119.778,117.302z M115.334,132.398
	c-0.058,0.069,0.014,0.121,0.213,0.156s0.47,0.047,0.812,0.035s0.74-0.029,1.196-0.053c0.455-0.022,0.925-0.058,1.41-0.104
	c0.997-0.069,1.865-0.134,2.606-0.192c0.74-0.058,1.082-0.133,1.025-0.227c-0.256-1.188-0.52-2.359-0.791-3.512
	c-0.271-1.154-0.534-2.185-0.791-3.094c-0.256-0.908-0.499-1.647-0.726-2.219c-0.229-0.57-0.413-0.855-0.556-0.855
	c-0.171,0-0.42,0.314-0.748,0.943c-0.328,0.629-0.698,1.428-1.111,2.394c-0.413,0.967-0.84,2.044-1.282,3.232
	C116.153,130.092,115.733,131.257,115.334,132.398z"/>
<path fill="#010101" stroke="#010101" stroke-miterlimit="10" d="M142.139,139.736c0.028,0.209-0.015,0.373-0.128,0.489
	s-0.264,0.204-0.448,0.262c-0.186,0.059-0.392,0.104-0.62,0.14c-0.229,0.035-0.442,0.064-0.641,0.088
	c-0.143,0.023-0.506,0.041-1.089,0.053c-0.584,0.012-1.275-0.047-2.072-0.176c-0.797-0.127-1.645-0.354-2.542-0.681
	c-0.897-0.326-1.709-0.798-2.435-1.415c-0.727-0.617-1.318-1.422-1.773-2.412c-0.456-0.989-0.655-2.219-0.598-3.686
	c0.085-1.841,0.399-3.338,0.94-4.491s1.21-2.05,2.008-2.69c0.797-0.641,1.68-1.089,2.649-1.346c0.968-0.256,1.922-0.419,2.862-0.489
	c0.484-0.046,0.869-0.087,1.154-0.122c0.284-0.035,0.498-0.123,0.641-0.262c0.085-0.07,0.143-0.367,0.171-0.892
	s0.057-1.101,0.085-1.729s0.057-1.223,0.085-1.782s0.085-0.909,0.171-1.048c0.143-0.303,0.399-0.484,0.769-0.543
	c0.37-0.057,0.626,0.041,0.769,0.298c0.085,0.14,0.15,0.431,0.192,0.874c0.043,0.442,0.071,1.106,0.085,1.991
	c0.014,0.886,0.007,2.021-0.021,3.407c-0.029,1.387-0.071,3.07-0.128,5.049c-0.058,1.259-0.093,2.499-0.107,3.723
	c-0.015,1.223-0.021,2.348-0.021,3.372c0,1.025,0,1.899,0,2.62C142.096,139.061,142.11,139.526,142.139,139.736z M140.387,138.059
	c0-0.07-0.007-0.413-0.021-1.031c-0.015-0.616-0.029-1.373-0.043-2.271c-0.015-0.896-0.029-1.857-0.042-2.883
	c-0.015-1.024-0.036-1.979-0.064-2.865c-0.028-0.885-0.05-1.63-0.064-2.236c-0.015-0.605-0.021-0.932-0.021-0.979
	c-0.028-0.162-0.064-0.361-0.106-0.594c-0.043-0.232-0.292-0.338-0.748-0.314c-0.143,0.023-0.435,0.053-0.875,0.088
	c-0.442,0.034-0.94,0.121-1.496,0.262c-0.555,0.14-1.147,0.361-1.773,0.664c-0.627,0.303-1.196,0.716-1.709,1.24
	c-0.513,0.523-0.947,1.183-1.303,1.975c-0.356,0.792-0.534,1.771-0.534,2.936c-0.028,1.164,0.121,2.131,0.449,2.9
	c0.327,0.769,0.754,1.393,1.282,1.869c0.527,0.478,1.096,0.838,1.709,1.083c0.612,0.245,1.21,0.419,1.794,0.524
	c0.583,0.105,1.104,0.157,1.56,0.157c0.455,0,0.783,0,0.982,0c0.57,0,0.883-0.04,0.94-0.122S140.387,138.246,140.387,138.059z"/>
<path fill="#010101" stroke="#010101" stroke-miterlimit="10" d="M146.873,118.35c0.256-0.465,0.47-0.751,0.641-0.855
	c0.171-0.105,0.384-0.029,0.641,0.227c0.057,0.07,0.192,0.391,0.406,0.961c0.213,0.571,0.477,1.293,0.79,2.167
	s0.655,1.864,1.025,2.97c0.37,1.107,0.754,2.236,1.154,3.391c0.398,1.152,0.783,2.271,1.153,3.354
	c0.37,1.084,0.712,2.057,1.025,2.918c0.313,0.863,0.577,1.551,0.791,2.063c0.214,0.513,0.349,0.769,0.406,0.769
	s0.192-0.268,0.406-0.804c0.213-0.535,0.47-1.234,0.769-2.097c0.299-0.861,0.633-1.853,1.004-2.97
	c0.37-1.119,0.748-2.254,1.132-3.408c0.384-1.152,0.769-2.289,1.153-3.406c0.385-1.119,0.74-2.108,1.068-2.971
	c0.327-0.861,0.612-1.555,0.854-2.079c0.241-0.524,0.419-0.774,0.534-0.751c0.228,0.023,0.398,0.035,0.513,0.035
	c0.114,0,0.199,0.012,0.256,0.034c0.057,0.023,0.114,0.076,0.171,0.157c0.057,0.082,0.128,0.216,0.214,0.402
	c0.057,0.094,0,0.472-0.171,1.135c-0.171,0.664-0.414,1.516-0.727,2.552c-0.313,1.036-0.691,2.201-1.132,3.494
	c-0.442,1.293-0.897,2.604-1.367,3.932c-0.47,1.327-0.947,2.627-1.432,3.896c-0.484,1.271-0.94,2.4-1.367,3.391
	s-0.812,1.788-1.153,2.394c-0.342,0.606-0.598,0.921-0.769,0.943c-0.143,0.023-0.378-0.268-0.705-0.874
	c-0.328-0.605-0.698-1.402-1.111-2.393c-0.413-0.99-0.862-2.127-1.346-3.408c-0.485-1.281-0.961-2.598-1.431-3.948
	c-0.47-1.351-0.919-2.679-1.346-3.983s-0.805-2.481-1.132-3.529c-0.328-1.049-0.577-1.905-0.748-2.568
	C146.873,118.822,146.816,118.443,146.873,118.35z"/>
<path fill="#010101" stroke="#010101" stroke-miterlimit="10" d="M167.987,133.271c0-0.582,0-1.334,0-2.254s0.014-1.904,0.043-2.953
	c0.028-1.049,0.071-2.113,0.128-3.197s0.15-2.097,0.278-3.04c0.128-0.944,0.292-1.765,0.491-2.464s0.456-1.188,0.769-1.468
	c0.655-0.582,1.389-0.892,2.201-0.926c0.812-0.035,1.609,0.11,2.393,0.437c0.783,0.326,1.523,0.764,2.222,1.311
	c0.697,0.548,1.246,1.102,1.645,1.66c0.741,1.025,1.289,2.184,1.645,3.477c0.356,1.293,0.577,2.563,0.662,3.809
	c0.085,1.247,0.049,2.365-0.106,3.355c-0.157,0.99-0.392,1.695-0.705,2.114c-0.229,0.303-0.605,0.524-1.132,0.663
	c-0.527,0.141-1.118,0.24-1.773,0.298c-0.656,0.058-1.346,0.087-2.072,0.087c-0.726,0-1.403,0-2.029,0
	c-0.627,0-1.154,0.006-1.581,0.018s-0.684,0.076-0.769,0.192c-0.143,0.163-0.207,0.442-0.192,0.839
	c0.014,0.396,0.121,0.82,0.32,1.275c0.199,0.454,0.513,0.886,0.94,1.293c0.427,0.408,1.011,0.693,1.751,0.855
	c0.513,0.117,1.061,0.176,1.645,0.176c0.583,0,1.139-0.053,1.667-0.158c0.526-0.104,0.982-0.25,1.367-0.437
	c0.384-0.187,0.647-0.396,0.79-0.629c0.114-0.232,0.313-0.325,0.598-0.279c0.285,0.047,0.548,0.157,0.791,0.331
	c0.242,0.176,0.413,0.385,0.513,0.63c0.1,0.245,0.035,0.448-0.192,0.611c-0.285,0.21-0.669,0.454-1.153,0.733
	c-0.485,0.28-1.062,0.531-1.73,0.752c-0.669,0.222-1.424,0.373-2.264,0.454c-0.841,0.082-1.745,0.006-2.713-0.228
	c-1.025-0.232-1.83-0.582-2.414-1.048c-0.584-0.466-1.025-1.014-1.325-1.643c-0.299-0.629-0.491-1.339-0.577-2.132
	C168.03,134.996,167.987,134.157,167.987,133.271z M171.32,119.398c-0.285,0.256-0.52,0.751-0.705,1.484
	c-0.186,0.734-0.335,1.573-0.449,2.517c-0.114,0.943-0.2,1.935-0.256,2.97c-0.058,1.037-0.085,1.992-0.085,2.866
	s0.035,1.596,0.107,2.167c0.071,0.57,0.164,0.867,0.277,0.891s0.385,0.041,0.812,0.053s0.933,0.012,1.517,0
	c0.583-0.012,1.203-0.029,1.858-0.053s1.261-0.064,1.816-0.123c0.556-0.057,1.018-0.127,1.389-0.209
	c0.37-0.082,0.569-0.18,0.598-0.297c0.398-2.143,0.449-4.071,0.149-5.783c-0.299-1.713-0.819-3.139-1.56-4.281
	c-0.427-0.629-0.883-1.158-1.367-1.59c-0.484-0.431-0.976-0.745-1.474-0.943c-0.499-0.197-0.976-0.273-1.432-0.227
	S171.662,119.072,171.32,119.398z"/>
<path fill="#010101" stroke="#010101" stroke-miterlimit="10" d="M186.752,117.826c0-0.094,0.085-0.163,0.256-0.21
	c0.171-0.046,0.363-0.069,0.577-0.069c0.214,0,0.427,0.023,0.641,0.069c0.213,0.047,0.391,0.116,0.534,0.21
	c0.114,0.093,0.156,0.291,0.128,0.594c-0.029,0.303-0.071,0.623-0.128,0.961s-0.093,0.641-0.106,0.908
	c-0.015,0.269,0.035,0.426,0.149,0.473c0.142-0.047,0.356-0.233,0.641-0.56s0.655-0.675,1.111-1.048s0.99-0.717,1.603-1.031
	c0.612-0.314,1.317-0.473,2.114-0.473c1.311,0,2.35,0.193,3.119,0.577s1.367,0.868,1.795,1.45c0.427,0.582,0.711,1.212,0.854,1.887
	c0.143,0.676,0.257,1.281,0.342,1.817c0.057,0.373,0.121,1.02,0.193,1.939c0.07,0.921,0.156,1.97,0.256,3.146
	s0.199,2.417,0.299,3.721c0.1,1.306,0.186,2.517,0.256,3.635c0.071,1.118,0.136,2.074,0.193,2.865
	c0.057,0.793,0.1,1.271,0.128,1.434c0.028,0.256-0.071,0.431-0.3,0.523c-0.228,0.094-0.477,0.129-0.747,0.105
	s-0.534-0.088-0.79-0.192c-0.257-0.104-0.399-0.251-0.428-0.437c-0.057-0.163-0.106-0.699-0.149-1.607
	c-0.042-0.909-0.106-2.103-0.192-3.582s-0.207-3.197-0.363-5.154s-0.349-4.089-0.576-6.396c-0.143-1.211-0.514-2.16-1.111-2.848
	c-0.598-0.687-1.48-1.007-2.648-0.961c-0.94,0.047-1.724,0.279-2.35,0.698c-0.627,0.42-1.125,0.909-1.496,1.469
	c-0.37,0.559-0.655,1.135-0.854,1.729c-0.199,0.595-0.342,1.078-0.427,1.451c-0.171,0.605-0.292,1.357-0.363,2.254
	c-0.072,0.896-0.122,1.857-0.15,2.883s-0.036,2.074-0.021,3.145c0.014,1.072,0.028,2.086,0.042,3.041
	c0.014,0.955,0.021,1.816,0.021,2.586c0,0.768-0.015,1.362-0.043,1.781c0,0.141-0.093,0.257-0.277,0.35
	c-0.186,0.094-0.399,0.151-0.641,0.175c-0.242,0.022-0.47-0.006-0.684-0.087c-0.213-0.082-0.349-0.228-0.406-0.438
	c-0.029-0.092-0.058-0.459-0.085-1.1c-0.029-0.641-0.05-1.463-0.064-2.465c-0.015-1.001-0.021-2.137-0.021-3.406
	s-0.007-2.574-0.021-3.914c-0.015-1.34-0.015-2.668,0-3.984c0.014-1.315,0.028-2.516,0.043-3.599
	c0.014-1.083,0.035-2.009,0.064-2.778C186.695,118.595,186.724,118.082,186.752,117.826z"/>
<path fill="#010101" stroke="#010101" stroke-miterlimit="10" d="M208.901,117.686c-0.028-0.232,0.093-0.419,0.363-0.559
	s0.569-0.221,0.897-0.244c0.326-0.023,0.633,0.029,0.918,0.156c0.285,0.129,0.428,0.344,0.428,0.646c0,0.21-0.021,0.699-0.064,1.469
	c-0.043,0.768-0.1,1.672-0.171,2.707c-0.071,1.037-0.136,2.139-0.192,3.303c-0.057,1.166-0.106,2.242-0.149,3.232
	c-0.042,0.99-0.063,1.817-0.063,2.48c0,0.664,0.027,1.009,0.085,1.031c0.085,0.047,0.249,0.076,0.491,0.088s0.52,0.012,0.833,0
	s0.642-0.029,0.983-0.053s0.668-0.047,0.982-0.07c0.284-0.022,0.498,0.059,0.641,0.245s0.221,0.396,0.234,0.629
	c0.015,0.233-0.021,0.454-0.106,0.664s-0.199,0.314-0.342,0.314c-0.171,0-0.448-0.005-0.833-0.018
	c-0.385-0.011-0.776-0.017-1.175-0.017c-0.399,0-0.763,0.023-1.089,0.069c-0.328,0.047-0.521,0.14-0.578,0.279
	c-0.057,0.094-0.1,0.338-0.127,0.733c-0.029,0.396-0.037,0.834-0.021,1.311c0.014,0.479,0.057,0.938,0.128,1.381
	c0.071,0.443,0.177,0.746,0.32,0.908c0.313,0.35,0.719,0.542,1.218,0.576c0.498,0.035,0.989,0.041,1.474,0.018
	c0.257,0,0.441,0.094,0.556,0.28c0.113,0.187,0.171,0.396,0.171,0.629c0,0.233-0.079,0.454-0.235,0.664s-0.377,0.314-0.662,0.314
	c-0.313,0-0.67,0-1.068,0s-0.805-0.04-1.217-0.122c-0.414-0.082-0.813-0.238-1.197-0.473c-0.384-0.232-0.705-0.57-0.961-1.013
	s-0.413-0.955-0.47-1.538c-0.058-0.582-0.079-1.141-0.063-1.677c0.014-0.536,0.035-1.001,0.063-1.397s0-0.629-0.085-0.699
	c-0.086-0.07-0.242-0.123-0.471-0.157c-0.229-0.035-0.491-0.053-0.79-0.053c-0.3,0-0.605,0.006-0.919,0.018
	c-0.313,0.013-0.613,0.018-0.896,0.018c-0.285,0-0.485-0.075-0.599-0.228c-0.114-0.15-0.171-0.32-0.171-0.506
	c0-0.187,0.057-0.367,0.171-0.542c0.113-0.175,0.271-0.285,0.47-0.332c0.199-0.046,0.455-0.063,0.77-0.053
	c0.313,0.013,0.626,0.018,0.939,0.018s0.591-0.011,0.834-0.034c0.241-0.023,0.391-0.105,0.447-0.245
	c0.029-0.093,0.064-0.483,0.107-1.171s0.07-1.531,0.086-2.533c0.014-1.002,0.035-2.08,0.063-3.232
	c0.028-1.153,0.05-2.242,0.064-3.268c0.014-1.025,0.014-1.898,0-2.621C208.908,118.292,208.901,117.85,208.901,117.686z"/>
<path fill="#010101" stroke="#010101" stroke-miterlimit="10" d="M235.271,140.029c0,0.093-0.086,0.162-0.257,0.209
	s-0.363,0.07-0.577,0.07c-0.213,0-0.435-0.018-0.662-0.053c-0.229-0.035-0.398-0.11-0.513-0.227
	c-0.114-0.094-0.157-0.291-0.128-0.594c0.027-0.303,0.07-0.617,0.128-0.943c0.057-0.326,0.093-0.629,0.106-0.909
	c0.015-0.28-0.035-0.442-0.148-0.489c-0.144,0.047-0.357,0.233-0.642,0.559c-0.284,0.327-0.655,0.677-1.11,1.049
	c-0.456,0.373-0.99,0.717-1.603,1.031s-1.317,0.472-2.114,0.472c-1.311,0-2.351-0.192-3.119-0.577
	c-0.77-0.385-1.367-0.867-1.795-1.449s-0.712-1.212-0.854-1.888c-0.143-0.675-0.257-1.28-0.342-1.817
	c-0.058-0.35-0.121-0.99-0.192-1.922s-0.156-1.986-0.256-3.162s-0.199-2.417-0.299-3.722c-0.101-1.305-0.186-2.517-0.257-3.634
	c-0.071-1.119-0.143-2.074-0.214-2.866s-0.106-1.27-0.106-1.433c-0.028-0.232,0.063-0.402,0.278-0.507
	c0.213-0.104,0.462-0.146,0.747-0.122c0.284,0.023,0.548,0.094,0.79,0.209c0.242,0.117,0.392,0.258,0.449,0.42
	c0.027,0.187,0.07,0.729,0.128,1.625c0.057,0.896,0.128,2.085,0.214,3.564c0.085,1.479,0.206,3.197,0.363,5.154
	c0.156,1.957,0.348,4.088,0.576,6.395c0.143,1.212,0.513,2.162,1.111,2.848c0.598,0.688,1.48,1.009,2.648,0.961
	c0.939-0.046,1.723-0.279,2.35-0.698s1.125-0.909,1.496-1.468c0.369-0.559,0.654-1.129,0.854-1.713
	c0.199-0.582,0.342-1.07,0.428-1.467c0.143-0.629,0.256-1.386,0.342-2.271c0.086-0.885,0.143-1.84,0.171-2.865
	s0.036-2.074,0.021-3.146s-0.021-2.085-0.021-3.04s-0.007-1.817-0.021-2.586c-0.016-0.77-0.008-1.363,0.021-1.782
	c0-0.14,0.093-0.256,0.278-0.35c0.185-0.093,0.398-0.151,0.641-0.175c0.241-0.022,0.47,0.006,0.684,0.088
	c0.213,0.082,0.348,0.227,0.406,0.437c0.027,0.093,0.057,0.46,0.085,1.101s0.05,1.463,0.063,2.464
	c0.015,1.002,0.021,2.138,0.021,3.407s0.007,2.574,0.021,3.914c0.014,1.34,0.014,2.668,0,3.983
	c-0.015,1.316-0.028,2.517-0.043,3.599c-0.014,1.084-0.035,2.01-0.063,2.779C235.328,139.26,235.299,139.773,235.271,140.029z"/>
<path fill="#010101" stroke="#010101" stroke-miterlimit="10" d="M241.688,118.07c-0.028-0.209,0.015-0.372,0.128-0.489
	c0.113-0.116,0.264-0.204,0.449-0.263c0.185-0.057,0.385-0.098,0.598-0.121c0.214-0.023,0.434-0.059,0.662-0.105
	c0.143-0.023,0.506-0.053,1.09-0.088c0.584-0.034,1.274-0.017,2.072,0.053c0.797,0.07,1.645,0.233,2.542,0.49
	c0.897,0.256,1.709,0.67,2.436,1.24s1.317,1.334,1.772,2.289c0.456,0.955,0.655,2.166,0.599,3.634
	c-0.086,1.631-0.35,2.982-0.79,4.054c-0.442,1.072-1.005,1.945-1.688,2.621c-0.684,0.676-1.446,1.182-2.286,1.52
	c-0.841,0.338-1.674,0.576-2.499,0.717c-0.2,0.047-0.278,0.094-0.235,0.14c0.042,0.047,0.12,0.093,0.235,0.14
	c1.65,0.746,3.098,1.363,4.336,1.852c1.239,0.49,1.972,0.793,2.2,0.909c0.199,0.116,0.292,0.297,0.278,0.542
	c-0.016,0.244-0.094,0.478-0.235,0.698c-0.143,0.222-0.342,0.396-0.599,0.524c-0.256,0.129-0.513,0.146-0.769,0.053
	c-0.171-0.047-0.534-0.222-1.089-0.524c-0.557-0.303-1.204-0.664-1.945-1.083c-0.74-0.42-1.531-0.868-2.371-1.346
	c-0.84-0.477-1.631-0.926-2.371-1.346c-0.143-0.116-0.242-0.162-0.299-0.14c-0.057,0.023-0.1,0.047-0.128,0.069
	c-0.085,0.07-0.144,0.402-0.171,0.996c-0.029,0.595-0.058,1.247-0.086,1.957c-0.028,0.711-0.057,1.387-0.085,2.027
	s-0.085,1.031-0.171,1.17c-0.143,0.304-0.399,0.484-0.77,0.543c-0.37,0.058-0.627-0.041-0.769-0.298
	c-0.085-0.14-0.149-0.431-0.192-0.874c-0.043-0.441-0.071-1.105-0.086-1.991c-0.014-0.886-0.007-2.015,0.021-3.39
	s0.071-3.063,0.129-5.067c0.027-1.258,0.057-2.499,0.085-3.722s0.043-2.347,0.043-3.372c0-1.024,0-1.898,0-2.62
	C241.731,118.746,241.717,118.28,241.688,118.07z M243.44,119.748c0,0.07,0.007,0.396,0.021,0.979
	c0.014,0.582,0.028,1.293,0.042,2.131c0.015,0.839,0.029,1.748,0.043,2.727s0.035,1.881,0.064,2.708
	c0.027,0.827,0.049,1.526,0.064,2.097c0.014,0.57,0.021,0.879,0.021,0.926c0,0.07,0.006,0.163,0.021,0.279
	c0.014,0.117,0.042,0.223,0.085,0.314c0.042,0.094,0.12,0.176,0.235,0.245c0.113,0.069,0.283,0.093,0.512,0.069
	c0.143,0,0.435-0.022,0.877-0.069c0.44-0.046,0.939-0.14,1.494-0.28c0.557-0.139,1.146-0.36,1.773-0.664
	c0.627-0.302,1.196-0.716,1.709-1.24c0.513-0.523,0.939-1.182,1.281-1.975c0.343-0.791,0.527-1.77,0.556-2.935
	c0-1.165-0.156-2.114-0.47-2.849c-0.313-0.733-0.733-1.315-1.26-1.746c-0.527-0.432-1.098-0.74-1.709-0.927
	c-0.613-0.187-1.211-0.303-1.795-0.35c-0.584-0.046-1.111-0.052-1.58-0.017c-0.471,0.034-0.791,0.052-0.962,0.052
	c-0.57,0-0.884,0.041-0.94,0.122C243.469,119.428,243.44,119.562,243.44,119.748z"/>
<path fill="#010101" stroke="#010101" stroke-miterlimit="10" d="M259.429,133.271c0-0.582,0-1.334,0-2.254s0.014-1.904,0.042-2.953
	s0.071-2.113,0.129-3.197c0.057-1.084,0.149-2.097,0.277-3.04c0.128-0.944,0.292-1.765,0.491-2.464s0.455-1.188,0.77-1.468
	c0.654-0.582,1.389-0.892,2.2-0.926c0.812-0.035,1.608,0.11,2.393,0.437c0.783,0.326,1.523,0.764,2.222,1.311
	c0.697,0.548,1.245,1.102,1.645,1.66c0.74,1.025,1.288,2.184,1.646,3.477c0.355,1.293,0.576,2.563,0.662,3.809
	c0.085,1.247,0.049,2.365-0.107,3.355s-0.392,1.695-0.705,2.114c-0.228,0.303-0.605,0.524-1.132,0.663
	c-0.527,0.141-1.118,0.24-1.773,0.298s-1.346,0.087-2.071,0.087c-0.727,0-1.403,0-2.03,0c-0.626,0-1.153,0.006-1.58,0.018
	c-0.428,0.012-0.684,0.076-0.77,0.192c-0.143,0.163-0.207,0.442-0.192,0.839s0.121,0.82,0.32,1.275
	c0.199,0.454,0.513,0.886,0.94,1.293c0.427,0.408,1.011,0.693,1.752,0.855c0.513,0.117,1.061,0.176,1.645,0.176
	s1.139-0.053,1.666-0.158c0.527-0.104,0.983-0.25,1.367-0.437c0.385-0.187,0.647-0.396,0.791-0.629
	c0.113-0.232,0.313-0.325,0.598-0.279c0.284,0.047,0.548,0.157,0.791,0.331c0.241,0.176,0.412,0.385,0.513,0.63
	c0.099,0.245,0.035,0.448-0.192,0.611c-0.285,0.21-0.67,0.454-1.154,0.733c-0.484,0.28-1.062,0.531-1.729,0.752
	c-0.67,0.222-1.425,0.373-2.265,0.454c-0.841,0.082-1.745,0.006-2.713-0.228c-1.025-0.232-1.831-0.582-2.414-1.048
	c-0.584-0.466-1.025-1.014-1.324-1.643c-0.3-0.629-0.492-1.339-0.577-2.132C259.471,134.996,259.429,134.157,259.429,133.271z
	 M262.761,119.398c-0.285,0.256-0.52,0.751-0.705,1.484c-0.186,0.734-0.335,1.573-0.448,2.517c-0.114,0.943-0.199,1.935-0.257,2.97
	c-0.057,1.037-0.085,1.992-0.085,2.866s0.035,1.596,0.106,2.167c0.071,0.57,0.164,0.867,0.278,0.891
	c0.113,0.023,0.384,0.041,0.812,0.053c0.427,0.012,0.933,0.012,1.517,0s1.203-0.029,1.858-0.053s1.261-0.064,1.816-0.123
	c0.555-0.057,1.018-0.127,1.388-0.209s0.57-0.18,0.599-0.297c0.398-2.143,0.448-4.071,0.149-5.783
	c-0.299-1.713-0.819-3.139-1.56-4.281c-0.427-0.629-0.883-1.158-1.367-1.59c-0.484-0.431-0.976-0.745-1.474-0.943
	c-0.499-0.197-0.977-0.273-1.432-0.227C263.501,118.887,263.103,119.072,262.761,119.398z"/>
<polygon fill="#010101" points="202.877,109.379 201.04,110.441 199.201,109.383 199.198,107.26 201.035,106.197 202.875,107.256 
	"/>
<rect x="108" y="106" fill="#010101" width="87" height="5"/>
<rect x="206" y="106" fill="#010101" width="86" height="5"/>
<path fill="#010101" stroke="#010101" stroke-miterlimit="10" d="M288.404,119.922c0.142,0.234,0.171,0.443,0.085,0.629
	c-0.085,0.188-0.221,0.332-0.405,0.438c-0.187,0.105-0.414,0.157-0.684,0.157c-0.271,0-0.507-0.069-0.705-0.21
	c-0.229-0.14-0.356-0.332-0.385-0.576s-0.121-0.489-0.277-0.734c-0.157-0.244-0.456-0.459-0.897-0.646
	c-0.442-0.186-1.161-0.279-2.158-0.279c-0.569,0-1.061,0.205-1.474,0.611c-0.413,0.408-0.748,0.979-1.004,1.713
	c-0.257,0.734-0.442,1.607-0.556,2.621c-0.114,1.014-0.156,2.126-0.128,3.337c0,0.815,0.206,1.497,0.619,2.044
	c0.413,0.548,0.926,1.037,1.538,1.468c0.612,0.432,1.274,0.827,1.987,1.188c0.711,0.361,1.381,0.751,2.008,1.17
	c0.626,0.42,1.153,0.904,1.581,1.451c0.427,0.547,0.654,1.217,0.684,2.009c0.057,1.165-0.179,2.085-0.705,2.761
	c-0.527,0.676-1.254,1.142-2.179,1.398c-0.927,0.256-2.023,0.309-3.29,0.156c-1.268-0.15-2.613-0.494-4.038-1.031
	c-0.313-0.115-0.47-0.284-0.47-0.506c0-0.221,0.1-0.432,0.299-0.629s0.471-0.338,0.813-0.42c0.342-0.081,0.697-0.04,1.067,0.123
	c0.399,0.163,0.962,0.338,1.688,0.523c0.726,0.188,1.438,0.279,2.136,0.279c0.697,0,1.317-0.127,1.858-0.384
	c0.541-0.256,0.812-0.745,0.812-1.468c0-0.722-0.206-1.334-0.619-1.834c-0.413-0.501-0.939-0.967-1.581-1.398
	c-0.641-0.431-1.339-0.85-2.093-1.258c-0.756-0.407-1.446-0.873-2.072-1.398c-0.627-0.523-1.154-1.141-1.581-1.852
	c-0.428-0.711-0.627-1.566-0.599-2.568c0.028-1.118,0.093-2.254,0.192-3.407s0.327-2.195,0.684-3.128
	c0.356-0.932,0.883-1.699,1.581-2.307c0.697-0.605,1.645-0.931,2.841-0.978c1.168-0.046,2.101,0.069,2.799,0.349
	c0.697,0.28,1.239,0.601,1.624,0.961c0.384,0.362,0.641,0.705,0.769,1.031S288.375,119.853,288.404,119.922z"/>
</svg>
